<?xml version="1.0" encoding="UTF-8"?>
<svg version="1.1" xmlns="http://www.w3.org/2000/svg" width="580" height="386">
<path d="M0 0 C1.76935913 -0.01945679 1.76935913 -0.01945679 3.57446289 -0.03930664 C13.01447915 -0.04925118 22.40223597 0.26112679 30.6875 5.1875 C30.6875 5.8475 30.6875 6.5075 30.6875 7.1875 C31.3475 7.1875 32.0075 7.1875 32.6875 7.1875 C35.67607854 12.84399415 37.52245898 16.76514356 35.6875 23.1875 C35.49414062 23.89777344 35.30078125 24.60804688 35.1015625 25.33984375 C32.32442168 33.38255356 25.75980197 37.59034194 18.4140625 41.3515625 C16.86513613 42.02803238 15.2800336 42.62126583 13.6875 43.1875 C14.368125 44.21875 15.04875 45.25 15.75 46.3125 C18.23592258 50.28426136 20.39610894 54.38047324 22.5 58.5625 C22.81396729 59.18141113 23.12793457 59.80032227 23.45141602 60.43798828 C25.6875 64.93991284 25.6875 64.93991284 25.6875 67.1875 C27.01088632 67.87370031 28.34699948 68.53536461 29.6875 69.1875 C30.7703125 69.7753125 30.7703125 69.7753125 31.875 70.375 C36.96768809 71.846221 41.75900497 70.87050866 46.6875 69.125 C52.94745018 65.08211551 59.17977928 60.69770453 61.32421875 53.2578125 C62.68675915 45.49279732 61.62464828 39.9796893 57.5 33.25 C54.36226973 31.41064088 51.14487172 31.47450116 47.6875 32.1875 C44.5610887 34.1469012 44.5610887 34.1469012 42.6875 37.1875 C42.16081631 40.47927306 42.02460513 42.22630244 43.9375 45 C45.85341802 46.30008722 47.41720466 46.79606977 49.6875 47.1875 C49.3575 48.8375 49.0275 50.4875 48.6875 52.1875 C45.76833462 52.53501969 43.55554524 52.72030018 40.98828125 51.14453125 C35.90190039 46.94488022 35.90190039 46.94488022 35.44921875 43.234375 C35.2693251 37.66713989 35.92817266 34.57338189 39.6875 30.1875 C43.25595355 26.85694335 47.10779027 25.26973907 52.015625 25.11328125 C59.66629769 25.52397687 64.81483376 28.16364081 70.0625 33.6875 C74.1185307 39.92754724 74.60162454 45.89260513 73.6875 53.1875 C71.96527765 57.93801668 69.47951616 61.99947576 66.6875 66.1875 C66.0275 66.1875 65.3675 66.1875 64.6875 66.1875 C64.6875 66.8475 64.6875 67.5075 64.6875 68.1875 C58.05058214 73.39947031 50.72176472 76.76550124 42.6875 79.1875 C41.79224609 79.47753906 41.79224609 79.47753906 40.87890625 79.7734375 C30.67925137 81.70064502 19.04452394 81.00395617 9.8125 76.21484375 C4.00013721 72.17992226 1.47736737 65.3765252 -1.41796875 59.16015625 C-4.21428108 52.07808889 -4.21428108 52.07808889 -9.453125 47.28515625 C-12.3828125 47.23632812 -12.3828125 47.23632812 -15.3125 47.1875 C-15.49425781 47.73277344 -15.67601562 48.27804688 -15.86328125 48.83984375 C-16.11464844 49.59394531 -16.36601562 50.34804687 -16.625 51.125 C-16.89441406 51.94355469 -17.16382813 52.76210937 -17.44140625 53.60546875 C-18.00748765 55.28340509 -18.59745158 56.95353867 -19.21484375 58.61328125 C-21.3136687 64.29284246 -21.3136687 64.29284246 -20.3125 70.1875 C-17.3425 70.8475 -14.3725 71.5075 -11.3125 72.1875 C-11.269779 73.85361905 -11.27186168 75.52132885 -11.3125 77.1875 C-12.86952281 78.74452281 -14.36891239 78.31985133 -16.53417969 78.3293457 C-17.88258942 78.33989738 -17.88258942 78.33989738 -19.25823975 78.35066223 C-20.7314267 78.35690865 -20.7314267 78.35690865 -22.234375 78.36328125 C-24.31381184 78.38651246 -26.39323891 78.41063105 -28.47265625 78.43554688 C-31.75055141 78.4704181 -35.02809579 78.49985758 -38.30615234 78.51342773 C-59.63046174 78.11873684 -59.63046174 78.11873684 -78.3125 87.1875 C-82.87088287 92.88547859 -84.7672612 98.95432012 -84.5703125 106.19921875 C-84.03849011 110.30069752 -82.371065 113.67526428 -80 117.0625 C-77.44245719 118.76752854 -75.36645425 119.00785563 -72.3125 119.1875 C-69.02388905 118.3427144 -69.02388905 118.3427144 -66.3125 117.1875 C-66.0631643 115.58634424 -65.83871352 113.98129841 -65.625 112.375 C-65.49738281 111.48167969 -65.36976563 110.58835937 -65.23828125 109.66796875 C-65.07226237 107.15594419 -65.07226237 107.15594419 -66.625 105.46875 C-68.75493821 103.85157469 -70.9882616 102.50666233 -73.3125 101.1875 C-72.25 99.625 -72.25 99.625 -70.3125 98.1875 C-65.78016407 98.10356785 -63.84497897 98.73432641 -60.375 101.6875 C-57.93713751 105.02648658 -57.70527437 108.02279803 -57.95703125 112.078125 C-58.68453711 116.39519274 -60.62796053 118.57141448 -63.8125 121.4375 C-69.34846153 125.31267307 -75.80768661 124.85722635 -82.3125 124.1875 C-87.3935848 122.38609792 -91.49073606 118.8530478 -94.40625 114.33203125 C-97.06980637 108.02904657 -97.07523473 100.04734137 -95.29296875 93.48046875 C-91.80001363 85.31168527 -86.27803944 79.05312944 -78.3125 75.1875 C-77.71953125 74.83816406 -77.1265625 74.48882812 -76.515625 74.12890625 C-69.84384221 71.27802034 -61.67807199 71.88478291 -54.51953125 71.66992188 C-53.66488281 71.63576172 -52.81023437 71.60160156 -51.9296875 71.56640625 C-50.77895752 71.52882202 -50.77895752 71.52882202 -49.60498047 71.49047852 C-46.83321865 71.12415728 -44.78215238 70.51292485 -42.3125 69.1875 C-41.01666481 67.23931722 -41.01666481 67.23931722 -40.3203125 64.75 C-39.9996582 63.76128906 -39.67900391 62.77257812 -39.34863281 61.75390625 C-37.41637342 55.10300021 -35.59010531 48.42980399 -33.84814453 41.7265625 C-33.18835921 39.1908022 -32.51860075 36.65782773 -31.84765625 34.125 C-29.67488548 25.86154639 -27.60713343 17.6441881 -26.3125 9.1875 C-27.77083333 9.10416667 -29.22916667 9.02083333 -30.6875 8.9375 C-33.1484375 8.796875 -33.1484375 8.796875 -35.3125 8.1875 C-36.6015625 6.140625 -36.6015625 6.140625 -37.3125 4.1875 C-30.33229477 -2.79270523 -9.21420655 0.05380647 0 0 Z M-6.3125 7.1875 C-7.27770574 10.47718992 -8.23335401 13.76958688 -9.1875 17.0625 C-9.45691406 17.9803125 -9.72632813 18.898125 -10.00390625 19.84375 C-11.56819698 25.2615374 -12.88128107 30.64597943 -13.88720703 36.19580078 C-14.3125 38.1875 -14.3125 38.1875 -15.3125 40.1875 C-6.45576484 40.52171642 2.68069339 40.16892027 9.6875 34.1875 C14.01985164 29.60758541 16.75712071 24.41059457 17.1875 18.0625 C16.58024562 13.35627852 15.34956324 12.08308488 11.6875 9.1875 C8.00662647 6.73358431 5.24394412 6.95947241 1 7.0625 C0.29810547 7.07152344 -0.40378906 7.08054688 -1.12695312 7.08984375 C-2.85561525 7.11336296 -4.58410145 7.14923287 -6.3125 7.1875 Z " fill="#FCFDFD" transform="translate(322.3125,166.8125)"/>
<path d="M0 0 C3.99963894 3.99963894 6.57922898 7.11361467 6.9375 12.875 C6.76963864 16.08061055 6.23917561 18.24619643 4.375 20.875 C0.49035932 24.11220057 -1.65191408 24.20642082 -6.625 24.375 C-7.285 23.055 -7.945 21.735 -8.625 20.375 C-7.965 20.375 -7.305 20.375 -6.625 20.375 C-6.625 19.715 -6.625 19.055 -6.625 18.375 C-4.975 18.045 -3.325 17.715 -1.625 17.375 C-0.81336475 13.61196384 -0.29997599 11.18756003 -1.75 7.5625 C-4.00316774 4.9338043 -5.22644443 4.07015909 -8.625 3.375 C-12.16835055 3.74798427 -14.57742166 4.14363598 -16.9609375 6.9453125 C-20.35753709 12.89538412 -20.52165071 18.93177549 -19.1875 25.54296875 C-17.25037136 31.80231567 -13.2244006 36.21881592 -7.6418457 39.56298828 C0.43738631 43.23544738 8.46918117 42.76011125 17.125 42.5 C19.34992304 42.44441318 21.57456076 42.39505093 23.79986572 42.3576355 C25.80793872 42.32231647 27.81564038 42.26745772 29.82324219 42.21142578 C33.38275653 42.37535722 36.07435553 43.07700089 39.375 44.375 C38.9375 46.6875 38.9375 46.6875 37.375 49.375 C35.13628839 50.36089415 32.93612375 51.00034916 30.56640625 51.6015625 C27.96134258 52.52099674 26.99415432 53.12877436 25.375 55.375 C24.52394055 57.85132682 23.8151395 60.2199046 23.1875 62.75 C22.92163086 63.74 22.92163086 63.74 22.65039062 64.75 C21.68409917 68.49577846 21.375 71.44608419 21.375 75.375 C29.955 75.375 38.535 75.375 47.375 75.375 C48.365 72.405 49.355 69.435 50.375 66.375 C50.766875 65.199375 51.15875 64.02375 51.5625 62.8125 C52.50662304 58.81813327 52.51855731 55.4663832 52.375 51.375 C49.735 50.715 47.095 50.055 44.375 49.375 C45.365 46.405 45.365 46.405 46.375 43.375 C51.00604563 42.46454273 55.47677427 42.24220952 60.1796875 42.27734375 C61.2656572 42.27946617 61.2656572 42.27946617 62.37356567 42.28163147 C64.66575407 42.28718925 66.95784157 42.29973367 69.25 42.3125 C70.81249858 42.31752047 72.37499871 42.32208241 73.9375 42.32617188 C77.75003835 42.33714481 81.56250212 42.3543799 85.375 42.375 C86.41949911 45.50849732 86.30923645 46.36468256 85.375 49.375 C84.77171875 49.46136719 84.1684375 49.54773438 83.546875 49.63671875 C82.74765625 49.77722656 81.9484375 49.91773438 81.125 50.0625 C80.33609375 50.19011719 79.5471875 50.31773437 78.734375 50.44921875 C75.27105054 51.80817222 74.3202285 53.1580437 72.375 56.375 C70.98231346 60.33499725 69.95776815 64.3678516 68.9375 68.4375 C68.4885437 70.16577026 68.4885437 70.16577026 68.03051758 71.92895508 C67.13100586 75.40749987 66.24996506 78.89020803 65.375 82.375 C65.12008789 83.3846582 64.86517578 84.39431641 64.60253906 85.43457031 C63.52788209 89.69674443 62.46464345 93.96134374 61.41796875 98.23046875 C60.75590325 100.92270329 60.03037571 103.58153674 59.23828125 106.23828125 C58.24232409 109.31485152 58.24232409 109.31485152 58.375 112.375 C61.015 112.705 63.655 113.035 66.375 113.375 C67.375 116.375 67.375 116.375 66.375 119.375 C53.175 119.375 39.975 119.375 26.375 119.375 C26.705 117.725 27.035 116.075 27.375 114.375 C27.98988281 114.21644531 28.60476562 114.05789062 29.23828125 113.89453125 C30.45064453 113.54455078 30.45064453 113.54455078 31.6875 113.1875 C32.48800781 112.96707031 33.28851563 112.74664062 34.11328125 112.51953125 C37.74287305 110.68279481 38.97349133 107.5403759 40.26635742 103.7878418 C40.50201416 102.89234619 40.7376709 101.99685059 40.98046875 101.07421875 C41.24150391 100.09775391 41.50253906 99.12128906 41.77148438 98.11523438 C42.16303711 96.60413086 42.16303711 96.60413086 42.5625 95.0625 C42.83513672 94.03576172 43.10777344 93.00902344 43.38867188 91.95117188 C44.05773148 89.42752599 44.71958359 86.90221698 45.375 84.375 C43.99634766 84.63603516 43.99634766 84.63603516 42.58984375 84.90234375 C37.36564007 85.64865856 32.18672525 85.23462596 26.9375 84.9375 C25.91978516 84.88529297 24.90207031 84.83308594 23.85351562 84.77929688 C21.36029631 84.65053907 18.86757367 84.5156198 16.375 84.375 C16.24222656 85.56996094 16.10945313 86.76492187 15.97265625 87.99609375 C15.5256967 91.5772882 14.78229862 94.95653199 13.8125 98.4375 C12.63677431 102.94064354 12.05912559 106.74217527 12.375 111.375 C15.015 112.365 17.655 113.355 20.375 114.375 C19.715 116.025 19.055 117.675 18.375 119.375 C5.505 119.705 -7.365 120.035 -20.625 120.375 C-20.955 119.055 -21.285 117.735 -21.625 116.375 C-19.625 113.375 -19.625 113.375 -17.6015625 112.92578125 C-16.82554687 112.84714844 -16.04953125 112.76851563 -15.25 112.6875 C-11.29044956 111.87658407 -10.83739536 111.66776117 -8.3125 108.1875 C-6.0494609 102.49932063 -4.65304963 96.49261442 -3.17675781 90.56103516 C-2.38698001 87.43197746 -1.54895181 84.31627636 -0.71508789 81.19873047 C0.33394956 77.26238716 1.3578286 73.31968262 2.375 69.375 C2.63724365 68.36252197 2.63724365 68.36252197 2.90478516 67.32958984 C3.36452487 65.53509238 3.80784352 63.73641062 4.25 61.9375 C4.49492187 60.94878906 4.73984375 59.96007812 4.9921875 58.94140625 C5.39123824 56.26613753 5.34476885 54.87650142 4.375 52.375 C1.64857884 51.36577228 -0.87894647 50.6145358 -3.6875 49.9375 C-14.70855447 46.97862862 -23.43569325 42.35717792 -29.5 32.25 C-32.1501311 25.47744275 -32.47089765 18.29688913 -30.9375 11.1875 C-28.61330456 6.20708121 -26.33452219 2.50255719 -21.6875 -0.5625 C-14.92727452 -2.94495832 -6.48199337 -2.90572116 0 0 Z " fill="#FDFDFD" transform="translate(215.625,96.625)"/>
</svg>
